<svg xmlns="http://www.w3.org/2000/svg" xmlns:xlink="http://www.w3.org/1999/xlink" width="1080" zoomAndPan="magnify" viewBox="0 0 810 809.999993" height="1080" preserveAspectRatio="xMidYMid meet" version="1.0"><defs><g/></defs><path fill="#00cadc" d="M 405 65.550781 C 412.410156 65.550781 419.808594 65.792969 427.199219 66.277344 C 434.59375 66.761719 441.960938 67.488281 449.308594 68.457031 C 456.652344 69.421875 463.957031 70.628906 471.222656 72.074219 C 478.488281 73.519531 485.699219 75.203125 492.855469 77.117188 C 500.011719 79.035156 507.097656 81.183594 514.113281 83.566406 C 521.128906 85.949219 528.058594 88.554688 534.902344 91.390625 C 541.746094 94.226562 548.488281 97.28125 555.132812 100.558594 C 561.777344 103.835938 568.308594 107.324219 574.722656 111.03125 C 581.140625 114.734375 587.425781 118.644531 593.585938 122.757812 C 599.746094 126.875 605.765625 131.1875 611.644531 135.699219 C 617.519531 140.207031 623.242188 144.90625 628.8125 149.789062 C 634.382812 154.675781 639.789062 159.734375 645.027344 164.972656 C 650.265625 170.210938 655.324219 175.617188 660.210938 181.1875 C 665.09375 186.757812 669.792969 192.480469 674.300781 198.355469 C 678.8125 204.234375 683.125 210.253906 687.242188 216.414062 C 691.355469 222.574219 695.265625 228.859375 698.96875 235.277344 L 551.984375 320.136719 C 550.132812 316.929688 548.179688 313.785156 546.121094 310.707031 C 544.0625 307.625 541.90625 304.617188 539.652344 301.679688 C 537.394531 298.738281 535.046875 295.878906 532.605469 293.09375 C 530.164062 290.308594 527.632812 287.605469 525.011719 284.988281 C 522.394531 282.367188 519.691406 279.835938 516.90625 277.394531 C 514.121094 274.953125 511.261719 272.605469 508.320312 270.347656 C 505.382812 268.09375 502.375 265.9375 499.292969 263.878906 C 496.214844 261.820312 493.070312 259.867188 489.863281 258.015625 C 486.652344 256.164062 483.390625 254.417969 480.066406 252.777344 C 476.746094 251.140625 473.371094 249.613281 469.949219 248.195312 C 466.527344 246.777344 463.0625 245.472656 459.554688 244.285156 C 456.046875 243.09375 452.503906 242.019531 448.929688 241.058594 C 445.351562 240.101562 441.746094 239.261719 438.113281 238.539062 C 434.480469 237.816406 430.824219 237.210938 427.152344 236.726562 C 423.480469 236.246094 419.796875 235.882812 416.101562 235.640625 C 412.402344 235.398438 408.703125 235.277344 405 235.277344 Z M 405 65.550781 " fill-opacity="1" fill-rule="nonzero"/><path fill="#0097b2" d="M 698.96875 235.277344 C 702.675781 241.691406 706.164062 248.222656 709.441406 254.867188 C 712.71875 261.511719 715.773438 268.253906 718.609375 275.097656 C 721.445312 281.941406 724.050781 288.871094 726.433594 295.886719 C 728.816406 302.902344 730.964844 309.988281 732.882812 317.144531 C 734.796875 324.300781 736.480469 331.511719 737.925781 338.777344 C 739.371094 346.042969 740.578125 353.347656 741.542969 360.691406 C 742.511719 368.039062 743.238281 375.40625 743.722656 382.800781 C 744.207031 390.191406 744.449219 397.589844 744.449219 405 C 744.449219 412.410156 744.207031 419.808594 743.722656 427.199219 C 743.238281 434.59375 742.511719 441.960938 741.542969 449.308594 C 740.578125 456.652344 739.371094 463.957031 737.925781 471.222656 C 736.480469 478.488281 734.796875 485.699219 732.882812 492.855469 C 730.964844 500.011719 728.816406 507.097656 726.433594 514.113281 C 724.050781 521.128906 721.445312 528.058594 718.609375 534.902344 C 715.773438 541.746094 712.71875 548.488281 709.441406 555.132812 C 706.164062 561.777344 702.675781 568.308594 698.96875 574.722656 L 551.984375 489.863281 C 553.835938 486.652344 555.582031 483.390625 557.222656 480.066406 C 558.859375 476.746094 560.386719 473.371094 561.804688 469.949219 C 563.222656 466.527344 564.527344 463.0625 565.714844 459.554688 C 566.90625 456.046875 567.980469 452.503906 568.941406 448.929688 C 569.898438 445.351562 570.738281 441.746094 571.460938 438.113281 C 572.183594 434.480469 572.789062 430.824219 573.273438 427.152344 C 573.753906 423.480469 574.117188 419.796875 574.359375 416.101562 C 574.601562 412.402344 574.722656 408.703125 574.722656 405 C 574.722656 401.296875 574.601562 397.597656 574.359375 393.898438 C 574.117188 390.203125 573.753906 386.519531 573.273438 382.847656 C 572.789062 379.175781 572.183594 375.519531 571.460938 371.886719 C 570.738281 368.253906 569.898438 364.648438 568.941406 361.070312 C 567.980469 357.496094 566.90625 353.953125 565.714844 350.445312 C 564.527344 346.9375 563.222656 343.472656 561.804688 340.050781 C 560.386719 336.628906 558.859375 333.253906 557.222656 329.933594 C 555.582031 326.609375 553.835938 323.347656 551.984375 320.136719 Z M 698.96875 235.277344 " fill-opacity="1" fill-rule="nonzero"/><path fill="#009b44" d="M 698.96875 574.722656 C 695.265625 581.140625 691.355469 587.425781 687.242188 593.585938 C 683.125 599.746094 678.8125 605.765625 674.300781 611.644531 C 669.792969 617.519531 665.09375 623.242188 660.210938 628.8125 C 655.324219 634.382812 650.265625 639.789062 645.027344 645.027344 C 639.789062 650.265625 634.382812 655.324219 628.8125 660.210938 C 623.242188 665.09375 617.519531 669.792969 611.644531 674.300781 C 605.765625 678.8125 599.746094 683.125 593.585938 687.242188 C 587.425781 691.355469 581.140625 695.265625 574.722656 698.96875 C 568.308594 702.675781 561.777344 706.164062 555.132812 709.441406 C 548.488281 712.71875 541.746094 715.773438 534.902344 718.609375 C 528.058594 721.445312 521.128906 724.050781 514.113281 726.433594 C 507.097656 728.816406 500.011719 730.964844 492.855469 732.882812 C 485.699219 734.796875 478.488281 736.480469 471.222656 737.925781 C 463.957031 739.371094 456.652344 740.578125 449.308594 741.542969 C 441.960938 742.511719 434.59375 743.238281 427.199219 743.722656 C 419.808594 744.207031 412.410156 744.449219 405 744.449219 L 405 574.722656 C 408.703125 574.722656 412.402344 574.601562 416.101562 574.359375 C 419.796875 574.117188 423.480469 573.753906 427.152344 573.273438 C 430.824219 572.789062 434.480469 572.183594 438.113281 571.460938 C 441.746094 570.738281 445.351562 569.898438 448.929688 568.941406 C 452.503906 567.980469 456.046875 566.90625 459.554688 565.714844 C 463.0625 564.527344 466.527344 563.222656 469.949219 561.804688 C 473.371094 560.386719 476.746094 558.859375 480.066406 557.222656 C 483.390625 555.582031 486.652344 553.835938 489.863281 551.984375 C 493.070312 550.132812 496.214844 548.179688 499.292969 546.121094 C 502.375 544.0625 505.382812 541.90625 508.320312 539.652344 C 511.261719 537.394531 514.121094 535.046875 516.90625 532.605469 C 519.691406 530.164062 522.394531 527.632812 525.011719 525.011719 C 527.632812 522.394531 530.164062 519.691406 532.605469 516.90625 C 535.046875 514.121094 537.394531 511.261719 539.652344 508.320312 C 541.90625 505.382812 544.0625 502.375 546.121094 499.292969 C 548.179688 496.214844 550.132812 493.070312 551.984375 489.863281 Z M 698.96875 574.722656 " fill-opacity="1" fill-rule="nonzero"/><path fill="#888989" d="M 405 744.449219 C 397.589844 744.449219 390.191406 744.207031 382.800781 743.722656 C 375.40625 743.238281 368.039062 742.511719 360.691406 741.542969 C 353.347656 740.578125 346.042969 739.371094 338.777344 737.925781 C 331.511719 736.480469 324.300781 734.796875 317.144531 732.882812 C 309.988281 730.964844 302.902344 728.816406 295.886719 726.433594 C 288.871094 724.050781 281.941406 721.445312 275.097656 718.609375 C 268.253906 715.773438 261.511719 712.71875 254.867188 709.441406 C 248.222656 706.164062 241.691406 702.675781 235.277344 698.96875 C 228.859375 695.265625 222.574219 691.355469 216.414062 687.242188 C 210.253906 683.125 204.234375 678.8125 198.355469 674.300781 C 192.480469 669.792969 186.757812 665.09375 181.1875 660.210938 C 175.617188 655.324219 170.210938 650.265625 164.972656 645.027344 C 159.734375 639.789062 154.675781 634.382812 149.789062 628.8125 C 144.90625 623.242188 140.207031 617.519531 135.699219 611.644531 C 131.1875 605.765625 126.875 599.746094 122.757812 593.585938 C 118.644531 587.425781 114.734375 581.140625 111.03125 574.722656 L 258.015625 489.863281 C 259.867188 493.070312 261.820312 496.214844 263.878906 499.292969 C 265.9375 502.375 268.09375 505.382812 270.347656 508.320312 C 272.605469 511.261719 274.953125 514.121094 277.394531 516.90625 C 279.835938 519.691406 282.367188 522.394531 284.988281 525.011719 C 287.605469 527.632812 290.308594 530.164062 293.09375 532.605469 C 295.878906 535.046875 298.738281 537.394531 301.679688 539.652344 C 304.617188 541.90625 307.625 544.0625 310.707031 546.121094 C 313.785156 548.179688 316.929688 550.132812 320.136719 551.984375 C 323.347656 553.835938 326.609375 555.582031 329.933594 557.222656 C 333.253906 558.859375 336.628906 560.386719 340.050781 561.804688 C 343.472656 563.222656 346.9375 564.527344 350.445312 565.714844 C 353.953125 566.90625 357.496094 567.980469 361.070312 568.941406 C 364.648438 569.898438 368.253906 570.738281 371.886719 571.460938 C 375.519531 572.183594 379.175781 572.789062 382.847656 573.273438 C 386.519531 573.753906 390.203125 574.117188 393.898438 574.359375 C 397.59375 574.601562 401.296875 574.722656 405 574.722656 Z M 405 744.449219 " fill-opacity="1" fill-rule="nonzero"/><path fill="#7e80e7" d="M 111.03125 574.722656 C 107.324219 568.308594 103.835938 561.777344 100.558594 555.132812 C 97.28125 548.488281 94.226562 541.746094 91.390625 534.902344 C 88.554688 528.058594 85.949219 521.128906 83.566406 514.113281 C 81.183594 507.097656 79.035156 500.011719 77.117188 492.855469 C 75.203125 485.699219 73.519531 478.488281 72.074219 471.222656 C 70.628906 463.957031 69.421875 456.652344 68.457031 449.308594 C 67.488281 441.960938 66.761719 434.59375 66.277344 427.199219 C 65.792969 419.808594 65.550781 412.410156 65.550781 405 C 65.550781 397.589844 65.792969 390.191406 66.277344 382.800781 C 66.761719 375.40625 67.488281 368.039062 68.457031 360.691406 C 69.421875 353.347656 70.628906 346.042969 72.074219 338.777344 C 73.519531 331.511719 75.203125 324.300781 77.117188 317.144531 C 79.035156 309.988281 81.183594 302.902344 83.566406 295.886719 C 85.949219 288.871094 88.554688 281.941406 91.390625 275.097656 C 94.226562 268.253906 97.28125 261.511719 100.558594 254.867188 C 103.835938 248.222656 107.324219 241.691406 111.03125 235.277344 L 258.015625 320.136719 C 256.164062 323.347656 254.417969 326.609375 252.777344 329.933594 C 251.140625 333.253906 249.613281 336.628906 248.195312 340.050781 C 246.777344 343.472656 245.472656 346.9375 244.285156 350.445312 C 243.09375 353.953125 242.019531 357.496094 241.058594 361.070312 C 240.101562 364.648438 239.261719 368.253906 238.539062 371.886719 C 237.816406 375.519531 237.210938 379.175781 236.726562 382.847656 C 236.246094 386.519531 235.882812 390.203125 235.640625 393.898438 C 235.398438 397.597656 235.277344 401.296875 235.277344 405 C 235.277344 408.703125 235.398438 412.402344 235.640625 416.101562 C 235.882812 419.796875 236.246094 423.480469 236.726562 427.152344 C 237.210938 430.824219 237.816406 434.480469 238.539062 438.113281 C 239.261719 441.746094 240.101562 445.351562 241.058594 448.929688 C 242.019531 452.503906 243.09375 456.046875 244.285156 459.554688 C 245.472656 463.0625 246.777344 466.527344 248.195312 469.949219 C 249.613281 473.371094 251.140625 476.746094 252.777344 480.066406 C 254.417969 483.390625 256.164062 486.652344 258.015625 489.863281 Z M 111.03125 574.722656 " fill-opacity="1" fill-rule="nonzero"/><path fill="#cb6ce6" d="M 111.03125 235.277344 C 114.734375 228.859375 118.644531 222.574219 122.757812 216.414062 C 126.875 210.253906 131.1875 204.238281 135.695312 198.359375 C 140.203125 192.484375 144.902344 186.761719 149.785156 181.191406 C 154.667969 175.621094 159.730469 170.21875 164.96875 164.980469 C 170.207031 159.742188 175.609375 154.679688 181.179688 149.796875 C 186.746094 144.914062 192.46875 140.214844 198.347656 135.707031 C 204.222656 131.195312 210.242188 126.882812 216.402344 122.769531 C 222.558594 118.652344 228.847656 114.742188 235.261719 111.039062 C 241.675781 107.332031 248.207031 103.84375 254.847656 100.566406 C 261.492188 97.289062 268.234375 94.234375 275.078125 91.398438 C 281.921875 88.5625 288.851562 85.957031 295.867188 83.574219 C 302.878906 81.191406 309.964844 79.042969 317.121094 77.125 C 324.273438 75.207031 331.484375 73.527344 338.75 72.078125 C 346.015625 70.632812 353.320312 69.425781 360.664062 68.460938 C 368.007812 67.492188 375.375 66.765625 382.765625 66.28125 C 390.160156 65.796875 397.558594 65.554688 404.964844 65.550781 L 404.984375 235.277344 C 401.277344 235.277344 397.578125 235.398438 393.882812 235.640625 C 390.1875 235.882812 386.503906 236.246094 382.832031 236.730469 C 379.160156 237.214844 375.507812 237.816406 371.875 238.539062 C 368.242188 239.261719 364.636719 240.105469 361.058594 241.0625 C 357.480469 242.019531 353.941406 243.097656 350.433594 244.285156 C 346.925781 245.476562 343.460938 246.78125 340.039062 248.199219 C 336.617188 249.617188 333.246094 251.144531 329.925781 252.785156 C 326.601562 254.421875 323.339844 256.167969 320.128906 258.019531 C 316.921875 259.871094 313.78125 261.824219 310.699219 263.882812 C 307.621094 265.941406 304.613281 268.097656 301.671875 270.351562 C 298.734375 272.609375 295.875 274.957031 293.089844 277.398438 C 290.304688 279.839844 287.601562 282.371094 284.984375 284.988281 C 282.363281 287.609375 279.835938 290.3125 277.394531 293.09375 C 274.949219 295.878906 272.601562 298.742188 270.347656 301.679688 C 268.09375 304.617188 265.9375 307.628906 263.878906 310.707031 C 261.820312 313.785156 259.867188 316.929688 258.015625 320.136719 Z M 111.03125 235.277344 " fill-opacity="1" fill-rule="nonzero"/><g fill="#000000" fill-opacity="1"><g transform="translate(640.848547, 336.113404)"><g><path d="M 3.796875 8.515625 L 1.578125 3.546875 L 28.96875 -8.640625 L 32.125 -1.53125 L 15.0625 14.34375 L 15.25 14.734375 L 38.453125 12.6875 L 41.53125 19.59375 L 14.140625 31.78125 L 11.859375 26.640625 L 29.953125 18.59375 L 29.828125 18.09375 L 8.828125 19.84375 L 6.828125 15.328125 L 22.171875 0.90625 L 21.890625 0.46875 Z M 3.796875 8.515625 "/></g></g></g><g fill="#000000" fill-opacity="1"><g transform="translate(654.409826, 369.083503)"><g><path d="M 26.046875 0.421875 C 25.828125 -0.585938 25.945312 -1.472656 26.40625 -2.234375 C 26.875 -2.992188 27.59375 -3.484375 28.5625 -3.703125 C 29.5 -3.910156 30.34375 -3.769531 31.09375 -3.28125 C 31.84375 -2.800781 32.328125 -2.054688 32.546875 -1.046875 C 32.691406 -0.390625 32.679688 0.234375 32.515625 0.828125 C 32.359375 1.421875 32.066406 1.910156 31.640625 2.296875 C 31.222656 2.679688 30.703125 2.945312 30.078125 3.09375 C 29.441406 3.238281 28.84375 3.222656 28.28125 3.046875 C 27.726562 2.878906 27.253906 2.5625 26.859375 2.09375 C 26.460938 1.632812 26.191406 1.078125 26.046875 0.421875 Z M 0.71875 3.1875 L 22.796875 -1.75 L 24.03125 3.78125 L 1.953125 8.71875 Z M 0.71875 3.1875 "/></g></g></g><g fill="#000000" fill-opacity="1"><g transform="translate(657.045858, 379.004019)"><g><path d="M 0.53125 10.578125 C 0.382812 9.046875 0.4375 7.617188 0.6875 6.296875 C 0.9375 4.984375 1.332031 3.847656 1.875 2.890625 C 2.425781 1.929688 3.09375 1.195312 3.875 0.6875 L 7.546875 3.515625 L 7.59375 3.9375 C 6.65625 4.78125 5.976562 5.734375 5.5625 6.796875 C 5.15625 7.867188 5.003906 9.003906 5.109375 10.203125 C 5.210938 11.304688 5.488281 12.117188 5.9375 12.640625 C 6.394531 13.160156 6.984375 13.382812 7.703125 13.3125 C 8.285156 13.257812 8.75 13.015625 9.09375 12.578125 C 9.445312 12.140625 9.691406 11.460938 9.828125 10.546875 L 10.25 7.5 C 10.59375 5.226562 11.257812 3.523438 12.25 2.390625 C 13.25 1.253906 14.597656 0.609375 16.296875 0.453125 C 17.691406 0.328125 18.9375 0.578125 20.03125 1.203125 C 21.132812 1.828125 22.019531 2.757812 22.6875 4 C 23.351562 5.25 23.765625 6.738281 23.921875 8.46875 C 24.109375 10.488281 23.96875 12.195312 23.5 13.59375 C 23.039062 14.988281 22.359375 16.101562 21.453125 16.9375 L 17.90625 14.21875 L 17.875 13.796875 C 18.507812 13.109375 18.957031 12.359375 19.21875 11.546875 C 19.476562 10.734375 19.5625 9.84375 19.46875 8.875 C 19.257812 6.644531 18.460938 5.597656 17.078125 5.734375 C 16.492188 5.785156 16.035156 6.035156 15.703125 6.484375 C 15.378906 6.929688 15.148438 7.6875 15.015625 8.75 L 14.640625 11.59375 C 14.367188 13.925781 13.738281 15.664062 12.75 16.8125 C 11.757812 17.96875 10.351562 18.628906 8.53125 18.796875 C 7.113281 18.929688 5.828125 18.691406 4.671875 18.078125 C 3.523438 17.472656 2.585938 16.53125 1.859375 15.25 C 1.140625 13.96875 0.695312 12.410156 0.53125 10.578125 Z M 0.53125 10.578125 "/></g></g></g><g fill="#000000" fill-opacity="1"><g transform="translate(658.927362, 397.333387)"><g><path d="M -1.1875 10.515625 C -1.082031 8.984375 -0.800781 7.585938 -0.34375 6.328125 C 0.113281 5.066406 0.691406 4.007812 1.390625 3.15625 C 2.085938 2.300781 2.859375 1.679688 3.703125 1.296875 L 6.890625 4.6875 L 6.859375 5.109375 C 5.796875 5.796875 4.972656 6.628906 4.390625 7.609375 C 3.804688 8.597656 3.472656 9.691406 3.390625 10.890625 C 3.304688 11.992188 3.445312 12.835938 3.8125 13.421875 C 4.175781 14.015625 4.722656 14.335938 5.453125 14.390625 C 6.035156 14.429688 6.53125 14.265625 6.9375 13.890625 C 7.351562 13.515625 7.703125 12.882812 7.984375 12 L 8.90625 9.0625 C 9.601562 6.863281 10.535156 5.289062 11.703125 4.34375 C 12.878906 3.394531 14.3125 2.984375 16 3.109375 C 17.40625 3.203125 18.597656 3.640625 19.578125 4.421875 C 20.566406 5.210938 21.285156 6.28125 21.734375 7.625 C 22.191406 8.96875 22.359375 10.503906 22.234375 12.234375 C 22.085938 14.265625 21.675781 15.925781 21 17.21875 C 20.320312 18.519531 19.460938 19.507812 18.421875 20.1875 L 15.359375 16.921875 L 15.390625 16.515625 C 16.140625 15.941406 16.707031 15.269531 17.09375 14.5 C 17.476562 13.738281 17.707031 12.875 17.78125 11.90625 C 17.9375 9.675781 17.316406 8.515625 15.921875 8.421875 C 15.335938 8.378906 14.847656 8.550781 14.453125 8.9375 C 14.054688 9.332031 13.707031 10.039062 13.40625 11.0625 L 12.578125 13.796875 C 11.929688 16.054688 11.023438 17.675781 9.859375 18.65625 C 8.691406 19.632812 7.195312 20.0625 5.375 19.9375 C 3.945312 19.832031 2.710938 19.382812 1.671875 18.59375 C 0.640625 17.8125 -0.125 16.726562 -0.625 15.34375 C -1.132812 13.96875 -1.320312 12.359375 -1.1875 10.515625 Z M -1.1875 10.515625 "/></g></g></g><g fill="#000000" fill-opacity="1"><g transform="translate(657.43295, 416.170492)"><g><path d="M 23.625 11 C 23.820312 9.988281 24.285156 9.226562 25.015625 8.71875 C 25.753906 8.21875 26.609375 8.066406 27.578125 8.265625 C 28.535156 8.460938 29.253906 8.9375 29.734375 9.6875 C 30.210938 10.4375 30.351562 11.316406 30.15625 12.328125 C 30.019531 12.992188 29.753906 13.554688 29.359375 14.015625 C 28.960938 14.484375 28.492188 14.8125 27.953125 15 C 27.410156 15.195312 26.820312 15.226562 26.1875 15.09375 C 25.5625 14.96875 25.03125 14.710938 24.59375 14.328125 C 24.15625 13.941406 23.847656 13.457031 23.671875 12.875 C 23.503906 12.289062 23.488281 11.664062 23.625 11 Z M -0.640625 3.203125 L 21.53125 7.6875 L 20.390625 13.25 L -1.78125 8.765625 Z M -0.640625 3.203125 "/></g></g></g><g fill="#000000" fill-opacity="1"><g transform="translate(656.136137, 426.080788)"><g><path d="M -4.90625 12.1875 C -4.15625 10.113281 -3.0625 8.441406 -1.625 7.171875 C -0.195312 5.910156 1.492188 5.148438 3.453125 4.890625 C 5.421875 4.628906 7.570312 4.925781 9.90625 5.78125 C 12.25 6.632812 14.09375 7.796875 15.4375 9.265625 C 16.78125 10.734375 17.585938 12.410156 17.859375 14.296875 C 18.140625 16.191406 17.90625 18.175781 17.15625 20.25 C 16.394531 22.332031 15.296875 24.003906 13.859375 25.265625 C 12.429688 26.535156 10.726562 27.300781 8.75 27.5625 C 6.78125 27.832031 4.625 27.539062 2.28125 26.6875 C -0.0507812 25.832031 -1.882812 24.664062 -3.21875 23.1875 C -4.550781 21.71875 -5.351562 20.035156 -5.625 18.140625 C -5.90625 16.253906 -5.664062 14.269531 -4.90625 12.1875 Z M -0.375 13.84375 C -1.582031 17.15625 -0.0234375 19.601562 4.296875 21.1875 C 6.546875 22.007812 8.347656 22.179688 9.703125 21.703125 C 11.066406 21.234375 12.039062 20.195312 12.625 18.59375 C 13.820312 15.289062 12.25 12.847656 7.90625 11.265625 C 3.582031 9.679688 0.820312 10.539062 -0.375 13.84375 Z M -0.375 13.84375 "/></g></g></g><g fill="#000000" fill-opacity="1"><g transform="translate(648.468051, 448.040435)"><g><path d="M -1.71875 2.78125 L 17.5 14.71875 L 14.625 19.34375 L 11.796875 17.578125 L 11.484375 17.890625 C 12.921875 20.453125 12.804688 23.070312 11.140625 25.75 C 9.765625 27.957031 8.148438 29.207031 6.296875 29.5 C 4.441406 29.789062 2.359375 29.21875 0.046875 27.78125 L -12.4375 20.03125 L -9.4375 15.21875 L 2.453125 22.609375 C 3.734375 23.398438 4.8125 23.710938 5.6875 23.546875 C 6.570312 23.378906 7.363281 22.734375 8.0625 21.609375 C 8.914062 20.234375 9.132812 18.878906 8.71875 17.546875 C 8.3125 16.222656 7.144531 14.960938 5.21875 13.765625 L -4.71875 7.59375 Z M -1.71875 2.78125 "/></g></g></g><g fill="#000000" fill-opacity="1"><g transform="translate(472.278097, 190.454819)"><g><path d="M 17.71875 1.921875 L 10.609375 1.140625 L 3.75 -29.75 L 10 -29.078125 L 14.84375 -6.0625 L 15.359375 -6 L 24.890625 -27.46875 L 31 -26.8125 Z M 17.71875 1.921875 "/></g></g></g><g fill="#000000" fill-opacity="1"><g transform="translate(497.917243, 193.706058)"><g><path d="M 12.84375 -22.65625 C 11.851562 -22.945312 11.132812 -23.476562 10.6875 -24.25 C 10.238281 -25.03125 10.148438 -25.894531 10.421875 -26.84375 C 10.691406 -27.769531 11.222656 -28.445312 12.015625 -28.875 C 12.804688 -29.300781 13.695312 -29.367188 14.6875 -29.078125 C 15.332031 -28.898438 15.867188 -28.59375 16.296875 -28.15625 C 16.734375 -27.726562 17.023438 -27.234375 17.171875 -26.671875 C 17.316406 -26.117188 17.300781 -25.535156 17.125 -24.921875 C 16.945312 -24.296875 16.644531 -23.78125 16.21875 -23.375 C 15.800781 -22.96875 15.296875 -22.703125 14.703125 -22.578125 C 14.109375 -22.453125 13.488281 -22.476562 12.84375 -22.65625 Z M 3.140625 0.90625 L 9.375 -20.84375 L 14.828125 -19.28125 L 8.59375 2.46875 Z M 3.140625 0.90625 "/></g></g></g><g fill="#000000" fill-opacity="1"><g transform="translate(507.750344, 196.060091)"><g><path d="M 9.484375 4.703125 C 8.078125 4.078125 6.859375 3.335938 5.828125 2.484375 C 4.804688 1.628906 4.007812 0.726562 3.4375 -0.21875 C 2.875 -1.175781 2.554688 -2.117188 2.484375 -3.046875 L 6.765625 -4.875 L 7.140625 -4.703125 C 7.421875 -3.472656 7.921875 -2.414062 8.640625 -1.53125 C 9.367188 -0.65625 10.285156 0.03125 11.390625 0.53125 C 12.398438 0.976562 13.242188 1.132812 13.921875 1 C 14.609375 0.863281 15.097656 0.460938 15.390625 -0.203125 C 15.628906 -0.734375 15.640625 -1.257812 15.421875 -1.78125 C 15.203125 -2.300781 14.726562 -2.84375 14 -3.40625 L 11.546875 -5.28125 C 9.722656 -6.695312 8.5625 -8.113281 8.0625 -9.53125 C 7.570312 -10.945312 7.671875 -12.429688 8.359375 -13.984375 C 8.929688 -15.273438 9.753906 -16.25 10.828125 -16.90625 C 11.910156 -17.5625 13.160156 -17.867188 14.578125 -17.828125 C 15.992188 -17.796875 17.492188 -17.425781 19.078125 -16.71875 C 20.929688 -15.894531 22.351562 -14.941406 23.34375 -13.859375 C 24.332031 -12.773438 24.972656 -11.632812 25.265625 -10.4375 L 21.15625 -8.671875 L 20.765625 -8.84375 C 20.484375 -9.75 20.050781 -10.507812 19.46875 -11.125 C 18.882812 -11.75 18.148438 -12.253906 17.265625 -12.640625 C 15.222656 -13.554688 13.914062 -13.378906 13.34375 -12.109375 C 13.101562 -11.578125 13.097656 -11.054688 13.328125 -10.546875 C 13.554688 -10.035156 14.109375 -9.460938 14.984375 -8.828125 L 17.265625 -7.125 C 19.171875 -5.738281 20.382812 -4.332031 20.90625 -2.90625 C 21.425781 -1.476562 21.316406 0.0703125 20.578125 1.75 C 19.992188 3.050781 19.15625 4.054688 18.0625 4.765625 C 16.96875 5.472656 15.6875 5.828125 14.21875 5.828125 C 12.75 5.828125 11.171875 5.453125 9.484375 4.703125 Z M 9.484375 4.703125 "/></g></g></g><g fill="#000000" fill-opacity="1"><g transform="translate(524.801035, 203.821814)"><g><path d="M 18.59375 -18.25 C 17.71875 -18.800781 17.171875 -19.507812 16.953125 -20.375 C 16.734375 -21.238281 16.882812 -22.085938 17.40625 -22.921875 C 17.925781 -23.742188 18.625 -24.25 19.5 -24.4375 C 20.375 -24.632812 21.25 -24.457031 22.125 -23.90625 C 22.695312 -23.550781 23.132812 -23.101562 23.4375 -22.5625 C 23.738281 -22.03125 23.878906 -21.476562 23.859375 -20.90625 C 23.847656 -20.34375 23.671875 -19.785156 23.328125 -19.234375 C 22.984375 -18.691406 22.550781 -18.28125 22.03125 -18 C 21.519531 -17.71875 20.960938 -17.597656 20.359375 -17.640625 C 19.753906 -17.691406 19.164062 -17.894531 18.59375 -18.25 Z M 2.765625 1.734375 L 14.75 -17.453125 L 19.5625 -14.453125 L 7.578125 4.734375 Z M 2.765625 1.734375 "/></g></g></g><g fill="#000000" fill-opacity="1"><g transform="translate(533.514977, 208.359394)"><g><path d="M 9.59375 9 C 7.925781 7.539062 6.765625 5.914062 6.109375 4.125 C 5.453125 2.34375 5.351562 0.488281 5.8125 -1.4375 C 6.28125 -3.375 7.335938 -5.273438 8.984375 -7.140625 C 10.628906 -9.015625 12.378906 -10.304688 14.234375 -11.015625 C 16.097656 -11.734375 17.957031 -11.878906 19.8125 -11.453125 C 21.664062 -11.035156 23.425781 -10.097656 25.09375 -8.640625 C 26.757812 -7.171875 27.921875 -5.539062 28.578125 -3.75 C 29.242188 -1.96875 29.335938 -0.109375 28.859375 1.828125 C 28.390625 3.765625 27.332031 5.671875 25.6875 7.546875 C 24.039062 9.410156 22.289062 10.695312 20.4375 11.40625 C 18.59375 12.113281 16.738281 12.253906 14.875 11.828125 C 13.019531 11.410156 11.257812 10.46875 9.59375 9 Z M 12.765625 5.375 C 15.410156 7.695312 18.253906 7.128906 21.296875 3.671875 C 22.878906 1.867188 23.695312 0.25 23.75 -1.1875 C 23.800781 -2.625 23.1875 -3.90625 21.90625 -5.03125 C 19.269531 -7.34375 16.425781 -6.757812 13.375 -3.28125 C 10.332031 0.175781 10.128906 3.0625 12.765625 5.375 Z M 12.765625 5.375 "/></g></g></g><g fill="#000000" fill-opacity="1"><g transform="translate(551.05397, 223.269414)"><g><path d="M 1.921875 2.640625 L 20.25 -10.625 L 23.4375 -6.203125 L 20.734375 -4.25 L 20.90625 -3.859375 C 23.820312 -4.210938 26.207031 -3.113281 28.0625 -0.5625 C 29.582031 1.550781 30.125 3.519531 29.6875 5.34375 C 29.25 7.164062 27.929688 8.875 25.734375 10.46875 L 13.828125 19.09375 L 10.5 14.5 L 21.84375 6.28125 C 23.0625 5.394531 23.757812 4.515625 23.9375 3.640625 C 24.125 2.765625 23.832031 1.789062 23.0625 0.71875 C 22.101562 -0.59375 20.929688 -1.3125 19.546875 -1.4375 C 18.160156 -1.5625 16.554688 -0.957031 14.734375 0.375 L 5.25 7.234375 Z M 1.921875 2.640625 "/></g></g></g><g fill="#000000" fill-opacity="1"><g transform="translate(187.665388, 500.412402)"><g><path d="M -9.71875 -13.15625 C -8.019531 -10.976562 -6.96875 -8.71875 -6.5625 -6.375 C -6.15625 -4.03125 -6.492188 -1.679688 -7.578125 0.671875 C -8.671875 3.023438 -10.566406 5.253906 -13.265625 7.359375 C -15.972656 9.472656 -18.597656 10.769531 -21.140625 11.25 C -23.679688 11.726562 -26.039062 11.484375 -28.21875 10.515625 C -30.394531 9.554688 -32.332031 7.988281 -34.03125 5.8125 C -35.71875 3.644531 -36.765625 1.394531 -37.171875 -0.9375 C -37.585938 -3.269531 -37.25 -5.609375 -36.15625 -7.953125 C -35.0625 -10.304688 -33.160156 -12.539062 -30.453125 -14.65625 C -27.753906 -16.757812 -25.128906 -18.0625 -22.578125 -18.5625 C -20.023438 -19.0625 -17.664062 -18.828125 -15.5 -17.859375 C -13.332031 -16.890625 -11.40625 -15.320312 -9.71875 -13.15625 Z M -13.78125 -9.984375 C -15.34375 -11.984375 -17.179688 -13.003906 -19.296875 -13.046875 C -21.410156 -13.097656 -23.875 -12.023438 -26.6875 -9.828125 C -29.507812 -7.617188 -31.15625 -5.484375 -31.625 -3.421875 C -32.09375 -1.359375 -31.546875 0.671875 -29.984375 2.671875 C -28.410156 4.691406 -26.5625 5.726562 -24.4375 5.78125 C -22.320312 5.832031 -19.851562 4.753906 -17.03125 2.546875 C -14.21875 0.347656 -12.578125 -1.78125 -12.109375 -3.84375 C -11.648438 -5.914062 -12.207031 -7.960938 -13.78125 -9.984375 Z M -13.78125 -9.984375 "/></g></g></g><g fill="#000000" fill-opacity="1"><g transform="translate(169.343746, 476.879874)"><g><path d="M -4.3125 -9.4375 C -3.15625 -7.164062 -2.921875 -5.171875 -3.609375 -3.453125 C -4.304688 -1.742188 -5.8125 -0.300781 -8.125 0.875 L -21.484375 7.6875 L -24.0625 2.625 L -11.34375 -3.859375 C -10.113281 -4.484375 -9.347656 -5.203125 -9.046875 -6.015625 C -8.753906 -6.835938 -8.890625 -7.804688 -9.453125 -8.921875 C -10.171875 -10.328125 -11.1875 -11.179688 -12.5 -11.484375 C -13.820312 -11.796875 -15.46875 -11.445312 -17.4375 -10.4375 L -27.984375 -5.0625 L -30.5625 -10.125 L -10.40625 -20.40625 L -7.9375 -15.546875 L -10.90625 -14.03125 L -10.78125 -13.59375 C -9.3125 -13.550781 -8.050781 -13.207031 -7 -12.5625 C -5.945312 -11.914062 -5.050781 -10.875 -4.3125 -9.4375 Z M -4.3125 -9.4375 "/></g></g></g><g fill="#000000" fill-opacity="1"><g transform="translate(158.561449, 455.426567)"><g><path d="M -1.0625 -3.09375 L -22.46875 4.21875 L -24.25 -1 L -21.0625 -2.09375 L -21.109375 -2.5 C -22.492188 -2.613281 -23.601562 -2.992188 -24.4375 -3.640625 C -25.28125 -4.285156 -25.90625 -5.21875 -26.3125 -6.4375 C -26.726562 -7.644531 -26.84375 -8.640625 -26.65625 -9.421875 L -21.703125 -10.109375 L -21.484375 -9.703125 C -21.503906 -9.316406 -21.488281 -8.945312 -21.4375 -8.59375 C -21.382812 -8.25 -21.28125 -7.84375 -21.125 -7.375 C -20.613281 -5.875 -19.695312 -4.90625 -18.375 -4.46875 C -17.0625 -4.039062 -15.238281 -4.226562 -12.90625 -5.03125 L -2.890625 -8.453125 Z M -1.0625 -3.09375 "/></g></g></g><g fill="#000000" fill-opacity="1"><g transform="translate(153.375789, 439.900001)"><g/></g></g><g fill="#000000" fill-opacity="1"><g transform="translate(150.748732, 432.2817)"><g><path d="M -1.390625 -16.328125 C -1.085938 -13.585938 -1.390625 -11.101562 -2.296875 -8.875 C -3.203125 -6.65625 -4.734375 -4.828125 -6.890625 -3.390625 C -9.046875 -1.953125 -11.800781 -1.046875 -15.15625 -0.671875 C -18.519531 -0.285156 -21.410156 -0.554688 -23.828125 -1.484375 C -26.242188 -2.410156 -28.140625 -3.851562 -29.515625 -5.8125 C -30.898438 -7.78125 -31.742188 -10.132812 -32.046875 -12.875 C -32.367188 -15.75 -32.082031 -18.25 -31.1875 -20.375 C -30.300781 -22.507812 -28.757812 -24.132812 -26.5625 -25.25 L -23.453125 -21.234375 L -23.40625 -20.734375 C -24.882812 -19.910156 -25.898438 -18.914062 -26.453125 -17.75 C -27.003906 -16.582031 -27.179688 -15.148438 -26.984375 -13.453125 C -26.710938 -10.984375 -25.675781 -9.144531 -23.875 -7.9375 C -22.082031 -6.738281 -19.40625 -6.34375 -15.84375 -6.75 C -12.300781 -7.144531 -9.789062 -8.125 -8.3125 -9.6875 C -6.832031 -11.257812 -6.226562 -13.28125 -6.5 -15.75 C -6.9375 -19.625 -9.082031 -21.789062 -12.9375 -22.25 L -13 -22.75 L -11.21875 -27.34375 C -8.300781 -26.84375 -6.023438 -25.6875 -4.390625 -23.875 C -2.753906 -22.0625 -1.753906 -19.546875 -1.390625 -16.328125 Z M -1.390625 -16.328125 "/></g></g></g><g fill="#000000" fill-opacity="1"><g transform="translate(148.11328, 405.103049)"><g><path d="M 0.671875 -9.375 C 0.617188 -7.34375 0.03125 -5.804688 -1.09375 -4.765625 C -2.226562 -3.722656 -3.914062 -3.226562 -6.15625 -3.28125 L -31.609375 -3.9375 L -31.46875 -9.609375 L -6.234375 -8.96875 C -4.859375 -8.925781 -4.15625 -9.476562 -4.125 -10.625 C -4.113281 -10.957031 -4.15625 -11.304688 -4.25 -11.671875 L -4.171875 -11.96875 L 0.203125 -12.359375 C 0.359375 -12.046875 0.476562 -11.628906 0.5625 -11.109375 C 0.65625 -10.585938 0.691406 -10.007812 0.671875 -9.375 Z M 0.671875 -9.375 "/></g></g></g><g fill="#000000" fill-opacity="1"><g transform="translate(148.379949, 393.347254)"><g><path d="M -24.53125 -8.78125 C -24.644531 -7.75 -25.039062 -6.945312 -25.71875 -6.375 C -26.40625 -5.800781 -27.238281 -5.570312 -28.21875 -5.6875 C -29.1875 -5.789062 -29.945312 -6.191406 -30.5 -6.890625 C -31.050781 -7.585938 -31.269531 -8.453125 -31.15625 -9.484375 C -31.082031 -10.148438 -30.875 -10.734375 -30.53125 -11.234375 C -30.1875 -11.742188 -29.75 -12.113281 -29.21875 -12.34375 C -28.695312 -12.582031 -28.113281 -12.671875 -27.46875 -12.609375 C -26.832031 -12.535156 -26.273438 -12.328125 -25.796875 -11.984375 C -25.328125 -11.648438 -24.976562 -11.195312 -24.75 -10.625 C -24.53125 -10.0625 -24.457031 -9.445312 -24.53125 -8.78125 Z M 0.34375 -3.25 L -22.15625 -5.671875 L -21.546875 -11.3125 L 0.953125 -8.890625 Z M 0.34375 -3.25 "/></g></g></g><g fill="#000000" fill-opacity="1"><g transform="translate(149.019594, 382.952552)"><g><path d="M -4.75 -24.03125 L -8.03125 -9.859375 C -6.0625 -9.585938 -4.535156 -9.816406 -3.453125 -10.546875 C -2.367188 -11.273438 -1.640625 -12.441406 -1.265625 -14.046875 C -0.972656 -15.316406 -0.96875 -16.398438 -1.25 -17.296875 C -1.539062 -18.191406 -2.117188 -18.988281 -2.984375 -19.6875 L -2.875 -20.109375 L 0.328125 -23.25 C 1.710938 -22.164062 2.71875 -20.785156 3.34375 -19.109375 C 3.96875 -17.441406 4 -15.394531 3.4375 -12.96875 C 2.90625 -10.695312 2.015625 -8.828125 0.765625 -7.359375 C -0.472656 -5.898438 -2.050781 -4.921875 -3.96875 -4.421875 C -5.894531 -3.921875 -8.085938 -3.953125 -10.546875 -4.515625 C -13.054688 -5.097656 -15.0625 -6.054688 -16.5625 -7.390625 C -18.070312 -8.734375 -19.0625 -10.304688 -19.53125 -12.109375 C -20 -13.921875 -20 -15.832031 -19.53125 -17.84375 C -18.8125 -20.957031 -17.4375 -23.148438 -15.40625 -24.421875 C -13.382812 -25.703125 -10.773438 -25.976562 -7.578125 -25.25 C -6.421875 -24.976562 -5.523438 -24.734375 -4.890625 -24.515625 Z M -9.4375 -20.09375 C -11.113281 -20.4375 -12.414062 -20.332031 -13.34375 -19.78125 C -14.28125 -19.226562 -14.910156 -18.253906 -15.234375 -16.859375 C -15.878906 -14.066406 -14.660156 -12.050781 -11.578125 -10.8125 Z M -9.4375 -20.09375 "/></g></g></g><g fill="#000000" fill-opacity="1"><g transform="translate(153.717016, 361.327052)"><g><path d="M 1.25 -3.015625 L -19.65625 -11.671875 L -17.578125 -16.71875 L -14.5 -15.4375 L -14.25 -15.796875 C -16.070312 -18.078125 -16.378906 -20.675781 -15.171875 -23.59375 C -14.179688 -26 -12.796875 -27.492188 -11.015625 -28.078125 C -9.234375 -28.671875 -7.082031 -28.445312 -4.5625 -27.40625 L 9.015625 -21.78125 L 6.84375 -16.546875 L -6.09375 -21.90625 C -7.488281 -22.476562 -8.601562 -22.613281 -9.4375 -22.3125 C -10.28125 -22.007812 -10.957031 -21.242188 -11.46875 -20.015625 C -12.082031 -18.515625 -12.078125 -17.140625 -11.453125 -15.890625 C -10.835938 -14.648438 -9.484375 -13.597656 -7.390625 -12.734375 L 3.421875 -8.265625 Z M 1.25 -3.015625 "/></g></g></g><g fill="#000000" fill-opacity="1"><g transform="translate(163.173057, 338.910242)"><g><path d="M 3.328125 -16.171875 L 7.703125 -15.296875 C 7.816406 -14.503906 7.757812 -13.632812 7.53125 -12.6875 C 7.3125 -11.75 6.898438 -10.773438 6.296875 -9.765625 C 5.046875 -7.660156 3.523438 -6.398438 1.734375 -5.984375 C -0.0546875 -5.566406 -2.050781 -6.007812 -4.25 -7.3125 L -13.484375 -12.796875 L -15.25 -9.828125 L -19.125 -12.125 L -17.359375 -15.09375 L -21.15625 -17.34375 L -19.046875 -22.6875 L -14.46875 -19.96875 L -11.1875 -25.5 L -7.3125 -23.203125 L -10.59375 -17.671875 L -1.703125 -12.40625 C -0.734375 -11.832031 0.0859375 -11.617188 0.765625 -11.765625 C 1.441406 -11.910156 2.003906 -12.363281 2.453125 -13.125 C 2.972656 -13.988281 3.1875 -14.878906 3.09375 -15.796875 Z M 3.328125 -16.171875 "/></g></g></g><g fill="#000000" fill-opacity="1"><g transform="translate(170.996613, 325.293788)"><g><path d="M 6.828125 -8.09375 C 5.878906 -6.875 4.867188 -5.867188 3.796875 -5.078125 C 2.722656 -4.285156 1.65625 -3.722656 0.59375 -3.390625 C -0.46875 -3.066406 -1.457031 -2.984375 -2.375 -3.140625 L -3.125 -7.734375 L -2.859375 -8.0625 C -1.597656 -8.039062 -0.453125 -8.273438 0.578125 -8.765625 C 1.609375 -9.253906 2.492188 -9.976562 3.234375 -10.9375 C 3.910156 -11.8125 4.257812 -12.59375 4.28125 -13.28125 C 4.3125 -13.96875 4.039062 -14.535156 3.46875 -14.984375 C 3.007812 -15.347656 2.5 -15.488281 1.9375 -15.40625 C 1.382812 -15.320312 0.753906 -14.992188 0.046875 -14.421875 L -2.375 -12.484375 C -4.175781 -11.046875 -5.828125 -10.253906 -7.328125 -10.109375 C -8.828125 -9.972656 -10.242188 -10.425781 -11.578125 -11.46875 C -12.691406 -12.332031 -13.4375 -13.363281 -13.8125 -14.5625 C -14.195312 -15.769531 -14.203125 -17.054688 -13.828125 -18.421875 C -13.460938 -19.785156 -12.75 -21.15625 -11.6875 -22.53125 C -10.4375 -24.132812 -9.164062 -25.285156 -7.875 -25.984375 C -6.59375 -26.679688 -5.335938 -27.03125 -4.109375 -27.03125 L -3.375 -22.625 L -3.640625 -22.28125 C -4.566406 -22.226562 -5.398438 -21.988281 -6.140625 -21.5625 C -6.890625 -21.144531 -7.5625 -20.550781 -8.15625 -19.78125 C -9.53125 -18.007812 -9.664062 -16.695312 -8.5625 -15.84375 C -8.101562 -15.488281 -7.597656 -15.359375 -7.046875 -15.453125 C -6.503906 -15.554688 -5.820312 -15.957031 -5 -16.65625 L -2.796875 -18.46875 C -0.992188 -19.976562 0.65625 -20.816406 2.15625 -20.984375 C 3.664062 -21.160156 5.144531 -20.6875 6.59375 -19.5625 C 7.71875 -18.6875 8.492188 -17.628906 8.921875 -16.390625 C 9.359375 -15.160156 9.398438 -13.832031 9.046875 -12.40625 C 8.703125 -10.988281 7.960938 -9.550781 6.828125 -8.09375 Z M 6.828125 -8.09375 "/></g></g></g><g fill="#000000" fill-opacity="1"><g transform="translate(218.848028, 258.067406)"><g><path d="M 10.0625 -12.890625 C 8.425781 -10.671875 6.53125 -9.050781 4.375 -8.03125 C 2.226562 -7.019531 -0.117188 -6.71875 -2.671875 -7.125 C -5.234375 -7.539062 -7.894531 -8.765625 -10.65625 -10.796875 C -13.414062 -12.835938 -15.367188 -15.019531 -16.515625 -17.34375 C -17.671875 -19.664062 -18.078125 -22 -17.734375 -24.34375 C -17.390625 -26.695312 -16.398438 -28.984375 -14.765625 -31.203125 C -13.128906 -33.410156 -11.242188 -35.03125 -9.109375 -36.0625 C -6.984375 -37.09375 -4.632812 -37.394531 -2.0625 -36.96875 C 0.5 -36.539062 3.160156 -35.304688 5.921875 -33.265625 C 8.679688 -31.234375 10.640625 -29.054688 11.796875 -26.734375 C 12.953125 -24.410156 13.359375 -22.070312 13.015625 -19.71875 C 12.679688 -17.375 11.695312 -15.097656 10.0625 -12.890625 Z M 5.90625 -15.953125 C 7.414062 -17.992188 7.90625 -20.039062 7.375 -22.09375 C 6.851562 -24.144531 5.15625 -26.226562 2.28125 -28.34375 C -0.601562 -30.46875 -3.097656 -31.476562 -5.203125 -31.375 C -7.316406 -31.269531 -9.128906 -30.195312 -10.640625 -28.15625 C -12.160156 -26.101562 -12.660156 -24.046875 -12.140625 -21.984375 C -11.617188 -19.921875 -9.914062 -17.828125 -7.03125 -15.703125 C -4.15625 -13.585938 -1.660156 -12.585938 0.453125 -12.703125 C 2.566406 -12.816406 4.382812 -13.898438 5.90625 -15.953125 Z M 5.90625 -15.953125 "/></g></g></g><g fill="#000000" fill-opacity="1"><g transform="translate(237.0242, 233.669645)"><g><path d="M 11 -11.015625 L 6.21875 -6.21875 L -15.703125 -16.296875 L -11.515625 -20.5 L 3.890625 -13.078125 L 4.21875 -13.421875 L -3.21875 -28.796875 L 0.875 -32.90625 Z M 11 -11.015625 "/></g></g></g><g fill="#000000" fill-opacity="1"><g transform="translate(252.760884, 217.725088)"><g><path d="M 11.546875 -21.609375 L 0.046875 -12.71875 C 1.378906 -11.257812 2.695312 -10.46875 4 -10.34375 C 5.3125 -10.21875 6.617188 -10.660156 7.921875 -11.671875 C 8.953125 -12.460938 9.632812 -13.296875 9.96875 -14.171875 C 10.3125 -15.054688 10.378906 -16.039062 10.171875 -17.125 L 10.515625 -17.390625 L 14.96875 -17.765625 C 15.363281 -16.054688 15.269531 -14.359375 14.6875 -12.671875 C 14.113281 -10.984375 12.84375 -9.378906 10.875 -7.859375 C 9.03125 -6.429688 7.160156 -5.546875 5.265625 -5.203125 C 3.378906 -4.867188 1.535156 -5.113281 -0.265625 -5.9375 C -2.078125 -6.769531 -3.753906 -8.1875 -5.296875 -10.1875 C -6.867188 -12.21875 -7.8125 -14.226562 -8.125 -16.21875 C -8.445312 -18.207031 -8.210938 -20.050781 -7.421875 -21.75 C -6.640625 -23.445312 -5.4375 -24.925781 -3.8125 -26.1875 C -1.28125 -28.144531 1.175781 -28.972656 3.5625 -28.671875 C 5.945312 -28.378906 8.140625 -26.9375 10.140625 -24.34375 C 10.867188 -23.394531 11.40625 -22.640625 11.75 -22.078125 Z M 5.453125 -21.53125 C 4.359375 -22.851562 3.269531 -23.597656 2.1875 -23.765625 C 1.113281 -23.929688 0.0078125 -23.578125 -1.125 -22.703125 C -3.382812 -20.953125 -3.707031 -18.617188 -2.09375 -15.703125 Z M 5.453125 -21.53125 "/></g></g></g><g fill="#000000" fill-opacity="1"><g transform="translate(270.943956, 203.791159)"><g><path d="M 2.78125 -1.703125 L -8.984375 -21.03125 L -4.265625 -23.890625 L -2.515625 -21 L -2.109375 -21.15625 C -2.296875 -22.519531 -2.164062 -23.6875 -1.71875 -24.65625 C -1.269531 -25.625 -0.5 -26.441406 0.59375 -27.109375 C 1.6875 -27.773438 2.632812 -28.09375 3.4375 -28.0625 L 5.171875 -23.375 L 4.84375 -23.078125 C 4.445312 -23.003906 4.085938 -22.90625 3.765625 -22.78125 C 3.441406 -22.664062 3.070312 -22.484375 2.65625 -22.234375 C 1.289062 -21.398438 0.535156 -20.296875 0.390625 -18.921875 C 0.253906 -17.546875 0.832031 -15.800781 2.125 -13.6875 L 7.625 -4.65625 Z M 2.78125 -1.703125 "/></g></g></g><g fill="#000000" fill-opacity="1"><g transform="translate(284.330767, 195.126186)"><g><path d="M 16.234375 -7.375 L 9.71875 -4.40625 L -11.921875 -27.515625 L -6.1875 -30.125 L 9.6875 -12.765625 L 10.15625 -12.984375 L 7.4375 -36.3125 L 13.03125 -38.84375 Z M 16.234375 -7.375 "/></g></g></g><g fill="#000000" fill-opacity="1"><g transform="translate(308.90768, 184.344125)"><g><path d="M -2.1875 -25.96875 C -3.164062 -25.644531 -4.054688 -25.675781 -4.859375 -26.0625 C -5.660156 -26.445312 -6.21875 -27.109375 -6.53125 -28.046875 C -6.832031 -28.960938 -6.773438 -29.816406 -6.359375 -30.609375 C -5.953125 -31.410156 -5.257812 -31.972656 -4.28125 -32.296875 C -3.632812 -32.503906 -3.007812 -32.550781 -2.40625 -32.4375 C -1.800781 -32.332031 -1.285156 -32.09375 -0.859375 -31.71875 C -0.429688 -31.34375 -0.113281 -30.847656 0.09375 -30.234375 C 0.289062 -29.617188 0.332031 -29.023438 0.21875 -28.453125 C 0.101562 -27.878906 -0.160156 -27.375 -0.578125 -26.9375 C -1.003906 -26.5 -1.539062 -26.175781 -2.1875 -25.96875 Z M 3.09375 -1.03125 L -4.015625 -22.515625 L 1.375 -24.296875 L 8.484375 -2.8125 Z M 3.09375 -1.03125 "/></g></g></g><g fill="#000000" fill-opacity="1"><g transform="translate(318.986139, 180.616343)"><g><path d="M 19.578125 -14.734375 L 5.40625 -11.515625 C 6 -9.628906 6.863281 -8.351562 8 -7.6875 C 9.132812 -7.03125 10.503906 -6.882812 12.109375 -7.25 C 13.378906 -7.539062 14.351562 -8.007812 15.03125 -8.65625 C 15.707031 -9.3125 16.171875 -10.175781 16.421875 -11.25 L 16.859375 -11.34375 L 21.0625 -9.828125 C 20.695312 -8.109375 19.894531 -6.601562 18.65625 -5.3125 C 17.425781 -4.019531 15.597656 -3.097656 13.171875 -2.546875 C 10.890625 -2.035156 8.816406 -2.019531 6.953125 -2.5 C 5.097656 -2.988281 3.53125 -3.988281 2.25 -5.5 C 0.96875 -7.007812 0.046875 -9 -0.515625 -11.46875 C -1.085938 -13.976562 -1.097656 -16.195312 -0.546875 -18.125 C 0.00390625 -20.0625 0.988281 -21.632812 2.40625 -22.84375 C 3.832031 -24.0625 5.550781 -24.898438 7.5625 -25.359375 C 10.6875 -26.066406 13.265625 -25.78125 15.296875 -24.5 C 17.328125 -23.226562 18.707031 -20.992188 19.4375 -17.796875 C 19.695312 -16.640625 19.863281 -15.734375 19.9375 -15.078125 Z M 13.984375 -17.234375 C 13.554688 -18.898438 12.890625 -20.03125 11.984375 -20.625 C 11.085938 -21.226562 9.9375 -21.375 8.53125 -21.0625 C 5.738281 -20.425781 4.457031 -18.445312 4.6875 -15.125 Z M 13.984375 -17.234375 "/></g></g></g><g fill="#000000" fill-opacity="1"><g transform="translate(340.686858, 175.178598)"><g><path d="M 12.109375 -0.875 L 6.171875 -0.453125 L -0.8125 -22.625 L 4.4375 -23 L 8.84375 -8 L 9.28125 -8.03125 L 12.484375 -23.59375 L 17.390625 -23.953125 L 22.921875 -9.015625 L 23.359375 -9.046875 L 25.4375 -24.53125 L 30.5625 -24.90625 L 26.890625 -1.953125 L 20.9375 -1.53125 L 15.546875 -16.578125 L 15.109375 -16.546875 Z M 12.109375 -0.875 "/></g></g></g><g fill="#000000" fill-opacity="1"><g transform="translate(396.455246, 649.887855)"><g><path d="M -12.03125 0.46875 C -10.144531 0.332031 -8.453125 0.441406 -6.953125 0.796875 C -5.460938 1.160156 -4.203125 1.679688 -3.171875 2.359375 C -2.148438 3.046875 -1.347656 3.820312 -0.765625 4.6875 L -3.4375 8.5 L -3.90625 8.53125 C -4.800781 7.375 -5.898438 6.484375 -7.203125 5.859375 C -8.503906 5.234375 -10 4.976562 -11.6875 5.09375 C -13.113281 5.195312 -14.164062 5.578125 -14.84375 6.234375 C -15.53125 6.890625 -15.835938 7.75 -15.765625 8.8125 C -15.710938 9.457031 -15.550781 9.984375 -15.28125 10.390625 C -15.019531 10.804688 -14.609375 11.148438 -14.046875 11.421875 C -13.492188 11.703125 -12.742188 11.914062 -11.796875 12.0625 L -8.25 12.609375 C -5.789062 12.992188 -3.914062 13.785156 -2.625 14.984375 C -1.34375 16.191406 -0.628906 17.828125 -0.484375 19.890625 C -0.367188 21.410156 -0.648438 22.78125 -1.328125 24 C -2.015625 25.21875 -3.066406 26.195312 -4.484375 26.9375 C -5.898438 27.6875 -7.625 28.132812 -9.65625 28.28125 C -11.75 28.425781 -13.554688 28.28125 -15.078125 27.84375 C -16.609375 27.40625 -17.925781 26.65625 -19.03125 25.59375 L -16.640625 21.78125 L -16.171875 21.75 C -15.347656 22.488281 -14.425781 23.023438 -13.40625 23.359375 C -12.394531 23.691406 -11.253906 23.8125 -9.984375 23.71875 C -8.515625 23.613281 -7.414062 23.269531 -6.6875 22.6875 C -5.957031 22.113281 -5.628906 21.375 -5.703125 20.46875 C -5.765625 19.613281 -6.082031 18.953125 -6.65625 18.484375 C -7.238281 18.023438 -8.195312 17.703125 -9.53125 17.515625 L -13.140625 17.015625 C -15.804688 16.648438 -17.773438 15.847656 -19.046875 14.609375 C -20.328125 13.367188 -21.046875 11.6875 -21.203125 9.5625 C -21.328125 7.863281 -21.070312 6.363281 -20.4375 5.0625 C -19.800781 3.757812 -18.769531 2.707031 -17.34375 1.90625 C -15.925781 1.101562 -14.15625 0.625 -12.03125 0.46875 Z M -12.03125 0.46875 "/></g></g></g><g fill="#000000" fill-opacity="1"><g transform="translate(374.642359, 651.510888)"><g><path d="M -20.484375 8.4375 L -7.34375 8.859375 C -7.445312 7.066406 -7.914062 5.75 -8.75 4.90625 C -9.59375 4.070312 -10.765625 3.628906 -12.265625 3.578125 C -13.429688 3.546875 -14.382812 3.734375 -15.125 4.140625 C -15.875 4.554688 -16.476562 5.207031 -16.9375 6.09375 L -17.328125 6.078125 L -20.6875 3.78125 C -19.976562 2.363281 -18.929688 1.234375 -17.546875 0.390625 C -16.171875 -0.453125 -14.363281 -0.84375 -12.125 -0.78125 C -10.007812 -0.707031 -8.191406 -0.25 -6.671875 0.59375 C -5.160156 1.445312 -4.015625 2.679688 -3.234375 4.296875 C -2.453125 5.921875 -2.097656 7.875 -2.171875 10.15625 C -2.242188 12.488281 -2.738281 14.4375 -3.65625 16 C -4.582031 17.5625 -5.804688 18.710938 -7.328125 19.453125 C -8.859375 20.191406 -10.554688 20.53125 -12.421875 20.46875 C -15.304688 20.375 -17.492188 19.535156 -18.984375 17.953125 C -20.472656 16.367188 -21.171875 14.097656 -21.078125 11.140625 C -21.046875 10.066406 -20.984375 9.234375 -20.890625 8.640625 Z M -16.1875 11.890625 C -16.1875 13.453125 -15.863281 14.59375 -15.21875 15.3125 C -14.570312 16.039062 -13.597656 16.425781 -12.296875 16.46875 C -9.703125 16.550781 -8.128906 15.113281 -7.578125 12.15625 Z M -16.1875 11.890625 "/></g></g></g><g fill="#000000" fill-opacity="1"><g transform="translate(353.622611, 650.763674)"><g><path d="M -2.9375 -0.34375 L -5.359375 19.984375 L -10.296875 19.390625 L -9.9375 16.359375 L -10.328125 16.234375 C -10.960938 17.304688 -11.707031 18.0625 -12.5625 18.5 C -13.425781 18.9375 -14.429688 19.085938 -15.578125 18.953125 C -16.722656 18.804688 -17.570312 18.503906 -18.125 18.046875 L -16.75 13.734375 L -16.34375 13.703125 C -16.039062 13.878906 -15.734375 14.015625 -15.421875 14.109375 C -15.117188 14.210938 -14.742188 14.289062 -14.296875 14.34375 C -12.878906 14.507812 -11.734375 14.140625 -10.859375 13.234375 C -9.992188 12.328125 -9.429688 10.769531 -9.171875 8.5625 L -8.03125 -0.953125 Z M -2.9375 -0.34375 "/></g></g></g><g fill="#000000" fill-opacity="1"><g transform="translate(338.850335, 649.181144)"><g><path d="M -13.78125 -2.875 L -7.78125 -1.625 L -4.5625 19.953125 L -9.828125 18.859375 L -11.828125 3.53125 L -12.25 3.453125 L -20.234375 16.6875 L -25.375 15.609375 Z M -13.78125 -2.875 "/></g></g></g><g fill="#000000" fill-opacity="1"><g transform="translate(318.373703, 644.738742)"><g><path d="M -11.65625 20.484375 C -10.769531 20.742188 -10.125 21.222656 -9.71875 21.921875 C -9.3125 22.628906 -9.226562 23.410156 -9.46875 24.265625 C -9.71875 25.109375 -10.203125 25.71875 -10.921875 26.09375 C -11.640625 26.476562 -12.441406 26.539062 -13.328125 26.28125 C -13.921875 26.113281 -14.410156 25.835938 -14.796875 25.453125 C -15.191406 25.066406 -15.453125 24.617188 -15.578125 24.109375 C -15.710938 23.609375 -15.695312 23.078125 -15.53125 22.515625 C -15.375 21.953125 -15.101562 21.488281 -14.71875 21.125 C -14.332031 20.757812 -13.875 20.519531 -13.34375 20.40625 C -12.8125 20.289062 -12.25 20.316406 -11.65625 20.484375 Z M -2.84375 -0.8125 L -8.515625 18.859375 L -13.453125 17.421875 L -7.78125 -2.25 Z M -2.84375 -0.8125 "/></g></g></g><g fill="#000000" fill-opacity="1"><g transform="translate(308.691706, 642.175998)"><g><path d="M -11.0625 -4.5 C -9.195312 -3.8125 -7.691406 -2.816406 -6.546875 -1.515625 C -5.410156 -0.210938 -4.71875 1.328125 -4.46875 3.109375 C -4.226562 4.898438 -4.5 6.84375 -5.28125 8.9375 C -6.0625 11.050781 -7.125 12.710938 -8.46875 13.921875 C -9.820312 15.128906 -11.347656 15.851562 -13.046875 16.09375 C -14.753906 16.34375 -16.519531 16.128906 -18.34375 15.453125 C -22.382812 13.960938 -24.429688 11.535156 -24.484375 8.171875 L -20.3125 7.03125 L -19.953125 7.171875 C -19.890625 8.210938 -19.617188 9.070312 -19.140625 9.75 C -18.671875 10.425781 -17.898438 10.960938 -16.828125 11.359375 C -15.429688 11.878906 -14.164062 11.800781 -13.03125 11.125 C -11.90625 10.457031 -10.972656 9.117188 -10.234375 7.109375 C -9.503906 5.140625 -9.351562 3.523438 -9.78125 2.265625 C -10.21875 1.003906 -11.148438 0.109375 -12.578125 -0.421875 C -13.609375 -0.804688 -14.59375 -0.847656 -15.53125 -0.546875 C -16.46875 -0.253906 -17.285156 0.359375 -17.984375 1.296875 L -18.359375 1.203125 L -21.109375 -1.9375 C -20.015625 -3.382812 -18.617188 -4.375 -16.921875 -4.90625 C -15.222656 -5.445312 -13.269531 -5.3125 -11.0625 -4.5 Z M -11.0625 -4.5 "/></g></g></g><g fill="#000000" fill-opacity="1"><g transform="translate(290.147601, 635.421959)"><g><path d="M -22.15625 -0.6875 L -10.3125 5.0625 C -9.675781 3.40625 -9.566406 2.019531 -9.984375 0.90625 C -10.410156 -0.207031 -11.300781 -1.09375 -12.65625 -1.75 C -13.695312 -2.257812 -14.644531 -2.476562 -15.5 -2.40625 C -16.351562 -2.332031 -17.175781 -1.988281 -17.96875 -1.375 L -18.3125 -1.546875 L -20.421875 -5.015625 C -19.203125 -6.015625 -17.789062 -6.613281 -16.1875 -6.8125 C -14.582031 -7.019531 -12.769531 -6.632812 -10.75 -5.65625 C -8.84375 -4.726562 -7.367188 -3.566406 -6.328125 -2.171875 C -5.296875 -0.785156 -4.753906 0.800781 -4.703125 2.59375 C -4.648438 4.394531 -5.125 6.320312 -6.125 8.375 C -7.144531 10.46875 -8.394531 12.039062 -9.875 13.09375 C -11.363281 14.15625 -12.953125 14.707031 -14.640625 14.75 C -16.335938 14.800781 -18.023438 14.421875 -19.703125 13.609375 C -22.304688 12.335938 -23.960938 10.675781 -24.671875 8.625 C -25.378906 6.570312 -25.082031 4.210938 -23.78125 1.546875 C -23.3125 0.578125 -22.914062 -0.15625 -22.59375 -0.65625 Z M -19.640625 4.21875 C -20.273438 5.644531 -20.441406 6.820312 -20.140625 7.75 C -19.847656 8.6875 -19.117188 9.441406 -17.953125 10.015625 C -15.617188 11.140625 -13.597656 10.46875 -11.890625 8 Z M -19.640625 4.21875 "/></g></g></g><g fill="#000000" fill-opacity="1"><g transform="translate(271.319029, 626.239076)"><g><path d="M -7.984375 -5.3125 C -6.785156 -4.582031 -5.773438 -3.773438 -4.953125 -2.890625 C -4.128906 -2.015625 -3.515625 -1.113281 -3.109375 -0.1875 C -2.703125 0.726562 -2.519531 1.609375 -2.5625 2.453125 L -6.625 3.59375 L -6.953125 3.390625 C -7.054688 2.253906 -7.382812 1.25 -7.9375 0.375 C -8.5 -0.5 -9.238281 -1.21875 -10.15625 -1.78125 C -11.007812 -2.300781 -11.75 -2.535156 -12.375 -2.484375 C -13 -2.441406 -13.484375 -2.132812 -13.828125 -1.5625 C -14.097656 -1.125 -14.171875 -0.660156 -14.046875 -0.171875 C -13.921875 0.316406 -13.5625 0.863281 -12.96875 1.46875 L -10.984375 3.421875 C -9.492188 4.890625 -8.613281 6.289062 -8.34375 7.625 C -8.070312 8.957031 -8.332031 10.273438 -9.125 11.578125 C -9.78125 12.671875 -10.628906 13.445312 -11.671875 13.90625 C -12.722656 14.375 -13.878906 14.515625 -15.140625 14.328125 C -16.398438 14.140625 -17.703125 13.632812 -19.046875 12.8125 C -20.628906 11.851562 -21.800781 10.832031 -22.5625 9.75 C -23.320312 8.664062 -23.753906 7.566406 -23.859375 6.453125 L -19.96875 5.359375 L -19.65625 5.546875 C -19.507812 6.390625 -19.207031 7.125 -18.75 7.75 C -18.289062 8.375 -17.6875 8.910156 -16.9375 9.359375 C -15.207031 10.421875 -14.015625 10.414062 -13.359375 9.34375 C -13.085938 8.882812 -13.023438 8.414062 -13.171875 7.9375 C -13.328125 7.457031 -13.753906 6.875 -14.453125 6.1875 L -16.328125 4.40625 C -17.859375 2.945312 -18.773438 1.546875 -19.078125 0.203125 C -19.390625 -1.128906 -19.113281 -2.503906 -18.25 -3.921875 C -17.570312 -5.035156 -16.703125 -5.847656 -15.640625 -6.359375 C -14.585938 -6.867188 -13.398438 -7.035156 -12.078125 -6.859375 C -10.765625 -6.691406 -9.398438 -6.175781 -7.984375 -5.3125 Z M -7.984375 -5.3125 "/></g></g></g><g fill="#000000" fill-opacity="1"><g transform="translate(256.024268, 616.782536)"><g/></g></g><g fill="#000000" fill-opacity="1"><g transform="translate(249.367326, 612.745233)"><g><path d="M -11.078125 -9.796875 C -9.179688 -8.203125 -7.828125 -6.40625 -7.015625 -4.40625 C -6.210938 -2.40625 -6.066406 -0.265625 -6.578125 2.015625 C -7.097656 4.304688 -8.359375 6.640625 -10.359375 9.015625 C -12.347656 11.390625 -14.421875 13.03125 -16.578125 13.9375 C -18.742188 14.851562 -20.878906 15.085938 -22.984375 14.640625 C -25.097656 14.191406 -27.101562 13.171875 -29 11.578125 C -30.90625 9.984375 -32.257812 8.191406 -33.0625 6.203125 C -33.875 4.210938 -34.015625 2.070312 -33.484375 -0.21875 C -32.960938 -2.507812 -31.707031 -4.84375 -29.71875 -7.21875 C -27.71875 -9.59375 -25.640625 -11.238281 -23.484375 -12.15625 C -21.328125 -13.070312 -19.195312 -13.304688 -17.09375 -12.859375 C -14.988281 -12.410156 -12.984375 -11.390625 -11.078125 -9.796875 Z M -14.0625 -6.234375 C -15.820312 -7.710938 -17.644531 -8.273438 -19.53125 -7.921875 C -21.414062 -7.566406 -23.398438 -6.148438 -25.484375 -3.671875 C -27.566406 -1.191406 -28.617188 1.003906 -28.640625 2.921875 C -28.660156 4.847656 -27.789062 6.550781 -26.03125 8.03125 C -24.257812 9.519531 -22.425781 10.082031 -20.53125 9.71875 C -18.644531 9.363281 -16.660156 7.945312 -14.578125 5.46875 C -12.492188 2.988281 -11.441406 0.789062 -11.421875 -1.125 C -11.410156 -3.039062 -12.289062 -4.742188 -14.0625 -6.234375 Z M -14.0625 -6.234375 "/></g></g></g><g fill="#000000" fill-opacity="1"><g transform="translate(227.99484, 594.430675)"><g><path d="M -2.5 -2.5625 L -14.25 8.875 L -12.234375 10.9375 L -15.15625 13.78125 L -17.171875 11.71875 C -17.648438 12.46875 -18.160156 13.109375 -18.703125 13.640625 C -19.628906 14.546875 -20.628906 15.109375 -21.703125 15.328125 C -22.773438 15.546875 -23.875 15.421875 -25 14.953125 C -26.125 14.492188 -27.21875 13.71875 -28.28125 12.625 C -29.851562 11 -30.753906 9.519531 -30.984375 8.1875 L -27.421875 6.40625 L -27.109375 6.640625 C -26.953125 7.566406 -26.457031 8.457031 -25.625 9.3125 C -24.976562 9.976562 -24.332031 10.320312 -23.6875 10.34375 C -23.039062 10.363281 -22.441406 10.101562 -21.890625 9.5625 C -21.648438 9.320312 -21.441406 9.085938 -21.265625 8.859375 C -21.097656 8.640625 -20.925781 8.363281 -20.75 8.03125 L -24.828125 3.84375 L -21.90625 1 L -17.828125 5.1875 L -6.078125 -6.25 Z M -2.5 -2.5625 "/></g></g></g><g fill="#000000" fill-opacity="1"><g transform="translate(218.322302, 584.540636)"><g><path d="M -2.3125 -2.71875 L -14.8125 7.90625 L -12.953125 10.09375 L -16.0625 12.734375 L -17.921875 10.546875 C -18.441406 11.265625 -18.992188 11.867188 -19.578125 12.359375 C -20.554688 13.203125 -21.585938 13.691406 -22.671875 13.828125 C -23.765625 13.972656 -24.859375 13.773438 -25.953125 13.234375 C -27.046875 12.703125 -28.085938 11.851562 -29.078125 10.6875 C -30.546875 8.96875 -31.34375 7.429688 -31.46875 6.078125 L -27.796875 4.546875 L -27.484375 4.796875 C -27.398438 5.734375 -26.96875 6.660156 -26.1875 7.578125 C -25.59375 8.285156 -24.972656 8.664062 -24.328125 8.71875 C -23.691406 8.78125 -23.070312 8.554688 -22.46875 8.046875 C -22.21875 7.835938 -22 7.625 -21.8125 7.40625 C -21.625 7.195312 -21.4375 6.9375 -21.25 6.625 L -25.046875 2.171875 L -21.9375 -0.46875 L -18.140625 3.984375 L -5.640625 -6.640625 Z M -2.3125 -2.71875 "/></g></g></g><g fill="#000000" fill-opacity="1"><g transform="translate(209.349053, 574.307413)"><g><path d="M -19.140625 -11.171875 L -11.5 -0.46875 C -10.132812 -1.632812 -9.375 -2.800781 -9.21875 -3.96875 C -9.0625 -5.144531 -9.421875 -6.34375 -10.296875 -7.5625 C -10.972656 -8.507812 -11.703125 -9.15625 -12.484375 -9.5 C -13.265625 -9.851562 -14.144531 -9.945312 -15.125 -9.78125 L -15.359375 -10.109375 L -15.5625 -14.15625 C -14.007812 -14.445312 -12.476562 -14.300781 -10.96875 -13.71875 C -9.457031 -13.144531 -8.050781 -11.941406 -6.75 -10.109375 C -5.519531 -8.390625 -4.78125 -6.664062 -4.53125 -4.9375 C -4.289062 -3.21875 -4.578125 -1.554688 -5.390625 0.046875 C -6.203125 1.648438 -7.535156 3.113281 -9.390625 4.4375 C -11.285156 5.789062 -13.132812 6.570312 -14.9375 6.78125 C -16.738281 7 -18.394531 6.726562 -19.90625 5.96875 C -21.425781 5.207031 -22.726562 4.066406 -23.8125 2.546875 C -25.488281 0.191406 -26.148438 -2.050781 -25.796875 -4.1875 C -25.441406 -6.332031 -24.054688 -8.269531 -21.640625 -10 C -20.773438 -10.625 -20.078125 -11.078125 -19.546875 -11.359375 Z M -19.265625 -5.65625 C -20.503906 -4.707031 -21.21875 -3.753906 -21.40625 -2.796875 C -21.59375 -1.835938 -21.3125 -0.832031 -20.5625 0.21875 C -19.050781 2.332031 -16.945312 2.710938 -14.25 1.359375 Z M -19.265625 -5.65625 "/></g></g></g><g fill="#000000" fill-opacity="1"><g transform="translate(197.190279, 557.144847)"><g><path d="M -1.5 -2.546875 L -19.125 7.859375 L -21.65625 3.5625 L -19.03125 2.015625 L -19.171875 1.640625 C -20.410156 1.796875 -21.460938 1.660156 -22.328125 1.234375 C -23.191406 0.816406 -23.921875 0.109375 -24.515625 -0.890625 C -25.097656 -1.878906 -25.375 -2.738281 -25.34375 -3.46875 L -21.078125 -4.984375 L -20.8125 -4.671875 C -20.757812 -4.328125 -20.675781 -4.003906 -20.5625 -3.703125 C -20.457031 -3.398438 -20.296875 -3.054688 -20.078125 -2.671875 C -19.347656 -1.441406 -18.359375 -0.753906 -17.109375 -0.609375 C -15.859375 -0.472656 -14.273438 -0.972656 -12.359375 -2.109375 L -4.109375 -6.96875 Z M -1.5 -2.546875 "/></g></g></g><g fill="#000000" fill-opacity="1"><g transform="translate(555.471504, 583.866915)"><g><path d="M -9.703125 10.859375 C -8.097656 8.941406 -6.269531 7.65625 -4.21875 7 C -2.164062 6.34375 0.0546875 6.375 2.453125 7.09375 C 4.859375 7.820312 7.359375 9.273438 9.953125 11.453125 C 12.566406 13.660156 14.375 15.957031 15.375 18.34375 C 16.375 20.738281 16.625 23.109375 16.125 25.453125 C 15.625 27.796875 14.472656 30.035156 12.671875 32.171875 C 10.828125 34.359375 8.84375 35.882812 6.71875 36.75 C 4.601562 37.625 2.476562 37.695312 0.34375 36.96875 L 1.125 31.953125 L 1.46875 31.578125 C 2.882812 31.972656 4.1875 31.941406 5.375 31.484375 C 6.5625 31.023438 7.691406 30.160156 8.765625 28.890625 C 10.429688 26.910156 11.078125 24.867188 10.703125 22.765625 C 10.335938 20.671875 8.773438 18.457031 6.015625 16.125 C 3.242188 13.800781 0.820312 12.597656 -1.25 12.515625 C -3.332031 12.441406 -5.179688 13.363281 -6.796875 15.28125 C -8.179688 16.925781 -8.832031 18.453125 -8.75 19.859375 C -8.664062 21.273438 -7.890625 22.601562 -6.421875 23.84375 L -5.421875 24.6875 L -0.859375 19.25 L 2.8125 22.34375 L -5.546875 32.28125 L -18.203125 21.625 L -14.546875 17.28125 L -11.46875 19.859375 L -11.15625 19.59375 C -11.863281 18.195312 -12.113281 16.765625 -11.90625 15.296875 C -11.695312 13.835938 -10.960938 12.359375 -9.703125 10.859375 Z M -9.703125 10.859375 "/></g></g></g><g fill="#000000" fill-opacity="1"><g transform="translate(538.541388, 604.503684)"><g><path d="M -11.40625 6.546875 C -9.53125 5.378906 -7.640625 4.742188 -5.734375 4.640625 C -3.828125 4.535156 -2.015625 4.984375 -0.296875 5.984375 C 1.410156 6.992188 2.921875 8.554688 4.234375 10.671875 C 5.546875 12.796875 6.273438 14.847656 6.421875 16.828125 C 6.566406 18.816406 6.160156 20.632812 5.203125 22.28125 C 4.253906 23.9375 2.84375 25.347656 0.96875 26.515625 C -0.914062 27.679688 -2.804688 28.320312 -4.703125 28.4375 C -6.597656 28.550781 -8.40625 28.101562 -10.125 27.09375 C -11.851562 26.082031 -13.375 24.515625 -14.6875 22.390625 C -16 20.273438 -16.722656 18.226562 -16.859375 16.25 C -16.992188 14.269531 -16.585938 12.445312 -15.640625 10.78125 C -14.703125 9.125 -13.289062 7.710938 -11.40625 6.546875 Z M -8.859375 10.65625 C -11.847656 12.507812 -12.128906 15.390625 -9.703125 19.296875 C -8.441406 21.335938 -7.128906 22.59375 -5.765625 23.0625 C -4.410156 23.539062 -3.007812 23.328125 -1.5625 22.421875 C 1.425781 20.578125 1.703125 17.6875 -0.734375 13.75 C -3.160156 9.84375 -5.867188 8.8125 -8.859375 10.65625 Z M -8.859375 10.65625 "/></g></g></g><g fill="#000000" fill-opacity="1"><g transform="translate(519.826485, 616.568731)"><g><path d="M -8.59375 2.015625 C -7.195312 1.609375 -5.910156 1.515625 -4.734375 1.734375 C -3.566406 1.960938 -2.566406 2.488281 -1.734375 3.3125 C -0.898438 4.144531 -0.28125 5.257812 0.125 6.65625 C 0.488281 7.945312 0.519531 9.109375 0.21875 10.140625 C -0.0820312 11.171875 -0.726562 12.132812 -1.71875 13.03125 C -2.71875 13.925781 -4.101562 14.789062 -5.875 15.625 C -7.125 16.207031 -8.050781 16.71875 -8.65625 17.15625 C -9.257812 17.601562 -9.628906 18.015625 -9.765625 18.390625 C -9.910156 18.773438 -9.914062 19.21875 -9.78125 19.71875 C -9.582031 20.40625 -9.1875 20.863281 -8.59375 21.09375 C -8 21.332031 -7.132812 21.285156 -6 20.953125 C -4.800781 20.609375 -3.734375 20.007812 -2.796875 19.15625 C -1.859375 18.300781 -1.113281 17.320312 -0.5625 16.21875 L -0.171875 16.09375 L 3.109375 18.890625 C 2.359375 20.429688 1.285156 21.769531 -0.109375 22.90625 C -1.515625 24.050781 -3.15625 24.894531 -5.03125 25.4375 C -7.90625 26.257812 -10.160156 26.242188 -11.796875 25.390625 C -13.429688 24.535156 -14.570312 22.988281 -15.21875 20.75 L -17.9375 11.296875 C -18.207031 10.328125 -18.773438 9.960938 -19.640625 10.203125 C -19.960938 10.296875 -20.269531 10.453125 -20.5625 10.671875 L -20.859375 10.65625 L -22.359375 6.984375 C -22.097656 6.679688 -21.71875 6.390625 -21.21875 6.109375 C -20.71875 5.828125 -20.144531 5.597656 -19.5 5.421875 C -18.207031 5.046875 -17.117188 5.003906 -16.234375 5.296875 C -15.359375 5.597656 -14.613281 6.234375 -14 7.203125 L -13.578125 7.109375 C -13.160156 4.546875 -11.5 2.847656 -8.59375 2.015625 Z M -9.171875 6.609375 C -10.429688 6.972656 -11.316406 7.679688 -11.828125 8.734375 C -12.335938 9.796875 -12.375 11.082031 -11.9375 12.59375 L -11.3125 14.796875 L -10.90625 14.78125 C -10.644531 14.414062 -10.273438 14.070312 -9.796875 13.75 C -9.316406 13.425781 -8.601562 13.03125 -7.65625 12.5625 C -6.53125 12.03125 -5.773438 11.445312 -5.390625 10.8125 C -5.015625 10.1875 -4.953125 9.429688 -5.203125 8.546875 C -5.472656 7.617188 -5.953125 6.988281 -6.640625 6.65625 C -7.328125 6.332031 -8.171875 6.316406 -9.171875 6.609375 Z M -9.171875 6.609375 "/></g></g></g><g fill="#000000" fill-opacity="1"><g transform="translate(499.786789, 622.076984)"><g><path d="M -9.390625 0.28125 C -7.367188 0.125 -5.78125 0.550781 -4.625 1.5625 C -3.46875 2.582031 -2.800781 4.210938 -2.625 6.453125 L -0.65625 31.84375 L -6.3125 32.296875 L -8.265625 7.125 C -8.367188 5.75 -8.992188 5.101562 -10.140625 5.1875 C -10.472656 5.207031 -10.820312 5.285156 -11.1875 5.421875 L -11.484375 5.375 L -12.3125 1.0625 C -12.019531 0.875 -11.617188 0.707031 -11.109375 0.5625 C -10.597656 0.425781 -10.023438 0.332031 -9.390625 0.28125 Z M -9.390625 0.28125 "/></g></g></g><g fill="#ffffff" fill-opacity="1"><g transform="translate(279.076161, 423.973767)"><g><path d="M 38.359375 0 L 30.046875 0 L 27.046875 -9.21875 L 11.734375 -9.21875 L 8.71875 0 L 0.609375 0 L 14.40625 -39.984375 L 24.5625 -39.984375 Z M 19 -31.640625 L 13.859375 -15.859375 L 24.859375 -15.859375 L 19.6875 -31.640625 Z M 19 -31.640625 "/></g></g></g><g fill="#ffffff" fill-opacity="1"><g transform="translate(318.035566, 423.973767)"><g><path d="M 21.078125 0.578125 C 17.234375 0.578125 14.375 -0.863281 12.5 -3.75 L 11.921875 -3.640625 L 11.921875 0 L 4.34375 0 L 4.34375 -42.28125 L 11.921875 -42.28125 L 11.921875 -26.609375 L 12.5 -26.5 C 13.539062 -27.9375 14.765625 -29 16.171875 -29.6875 C 17.585938 -30.382812 19.28125 -30.734375 21.25 -30.734375 C 23.6875 -30.734375 25.816406 -30.160156 27.640625 -29.015625 C 29.460938 -27.867188 30.882812 -26.125 31.90625 -23.78125 C 32.925781 -21.4375 33.4375 -18.53125 33.4375 -15.0625 C 33.4375 -11.632812 32.90625 -8.75 31.84375 -6.40625 C 30.789062 -4.070312 29.332031 -2.320312 27.46875 -1.15625 C 25.613281 0 23.484375 0.578125 21.078125 0.578125 Z M 18.78125 -5.859375 C 21.007812 -5.859375 22.707031 -6.597656 23.875 -8.078125 C 25.039062 -9.566406 25.625 -11.894531 25.625 -15.0625 C 25.625 -18.257812 25.039062 -20.597656 23.875 -22.078125 C 22.707031 -23.566406 21.007812 -24.3125 18.78125 -24.3125 C 16.65625 -24.3125 14.96875 -23.546875 13.71875 -22.015625 C 12.46875 -20.484375 11.84375 -18.164062 11.84375 -15.0625 C 11.84375 -11.96875 12.46875 -9.660156 13.71875 -8.140625 C 14.96875 -6.617188 16.65625 -5.859375 18.78125 -5.859375 Z M 18.78125 -5.859375 "/></g></g></g><g fill="#ffffff" fill-opacity="1"><g transform="translate(354.151619, 423.973767)"><g><path d="M 17.53125 0.578125 C 14.570312 0.578125 11.976562 -0.0234375 9.75 -1.234375 C 7.519531 -2.453125 5.785156 -4.234375 4.546875 -6.578125 C 3.316406 -8.921875 2.703125 -11.75 2.703125 -15.0625 C 2.703125 -18.382812 3.316406 -21.21875 4.546875 -23.5625 C 5.785156 -25.914062 7.519531 -27.695312 9.75 -28.90625 C 11.976562 -30.125 14.570312 -30.734375 17.53125 -30.734375 C 20.476562 -30.734375 23.066406 -30.125 25.296875 -28.90625 C 27.535156 -27.695312 29.273438 -25.914062 30.515625 -23.5625 C 31.753906 -21.21875 32.375 -18.382812 32.375 -15.0625 C 32.375 -11.75 31.753906 -8.921875 30.515625 -6.578125 C 29.273438 -4.234375 27.535156 -2.453125 25.296875 -1.234375 C 23.066406 -0.0234375 20.476562 0.578125 17.53125 0.578125 Z M 17.53125 -5.859375 C 22.21875 -5.859375 24.5625 -8.925781 24.5625 -15.0625 C 24.5625 -18.257812 23.957031 -20.597656 22.75 -22.078125 C 21.550781 -23.566406 19.8125 -24.3125 17.53125 -24.3125 C 12.84375 -24.3125 10.5 -21.226562 10.5 -15.0625 C 10.5 -8.925781 12.84375 -5.859375 17.53125 -5.859375 Z M 17.53125 -5.859375 "/></g></g></g><g fill="#ffffff" fill-opacity="1"><g transform="translate(389.201414, 423.973767)"><g><path d="M 13.8125 0.578125 C 10.414062 0.578125 7.910156 -0.347656 6.296875 -2.203125 C 4.691406 -4.054688 3.890625 -6.710938 3.890625 -10.171875 L 3.890625 -30.15625 L 11.453125 -30.15625 L 11.453125 -11.125 C 11.453125 -9.289062 11.847656 -7.945312 12.640625 -7.09375 C 13.441406 -6.25 14.671875 -5.828125 16.328125 -5.828125 C 18.421875 -5.828125 20.050781 -6.515625 21.21875 -7.890625 C 22.382812 -9.265625 22.96875 -11.429688 22.96875 -14.390625 L 22.96875 -30.15625 L 30.546875 -30.15625 L 30.546875 0 L 23.265625 0 L 23.265625 -4.4375 L 22.703125 -4.5625 C 21.734375 -2.832031 20.550781 -1.539062 19.15625 -0.6875 C 17.757812 0.15625 15.976562 0.578125 13.8125 0.578125 Z M 13.8125 0.578125 "/></g></g></g><g fill="#ffffff" fill-opacity="1"><g transform="translate(424.08717, 423.973767)"><g><path d="M 20.8125 -7.1875 L 22.78125 -1.59375 C 21.957031 -0.914062 20.925781 -0.382812 19.6875 0 C 18.445312 0.382812 17.046875 0.578125 15.484375 0.578125 C 12.210938 0.578125 9.726562 -0.3125 8.03125 -2.09375 C 6.34375 -3.875 5.5 -6.457031 5.5 -9.84375 L 5.5 -24.171875 L 0.90625 -24.171875 L 0.90625 -30.1875 L 5.5 -30.1875 L 5.5 -36.0625 L 13.078125 -37.296875 L 13.078125 -30.1875 L 21.625 -30.1875 L 21.625 -24.171875 L 13.078125 -24.171875 L 13.078125 -10.390625 C 13.078125 -8.898438 13.382812 -7.8125 14 -7.125 C 14.625 -6.4375 15.523438 -6.09375 16.703125 -6.09375 C 18.054688 -6.09375 19.234375 -6.457031 20.234375 -7.1875 Z M 20.8125 -7.1875 "/></g></g></g><g fill="#ffffff" fill-opacity="1"><g transform="translate(447.517493, 423.973767)"><g/></g></g><g fill="#ffffff" fill-opacity="1"><g transform="translate(460.722681, 423.973767)"><g><path d="M 21.1875 0.578125 C 15.6875 0.578125 11.601562 -0.726562 8.9375 -3.34375 C 6.28125 -5.96875 4.953125 -9.847656 4.953125 -14.984375 L 4.953125 -39.984375 L 12.6875 -39.984375 L 12.6875 -15.046875 C 12.6875 -12.128906 13.390625 -9.941406 14.796875 -8.484375 C 16.203125 -7.023438 18.332031 -6.296875 21.1875 -6.296875 C 26.863281 -6.296875 29.703125 -9.210938 29.703125 -15.046875 L 29.703125 -39.984375 L 37.4375 -39.984375 L 37.4375 -14.984375 C 37.4375 -9.847656 36.101562 -5.96875 33.4375 -3.34375 C 30.78125 -0.726562 26.695312 0.578125 21.1875 0.578125 Z M 21.1875 0.578125 "/></g></g></g><g fill="#ffffff" fill-opacity="1"><g transform="translate(503.099579, 423.973767)"><g><path d="M 14.109375 0.578125 C 12.046875 0.578125 10.15625 0.335938 8.4375 -0.140625 C 6.726562 -0.628906 5.269531 -1.296875 4.0625 -2.140625 C 2.851562 -2.992188 1.957031 -3.96875 1.375 -5.0625 L 5.578125 -9.59375 L 6.15625 -9.59375 C 7.15625 -8.25 8.335938 -7.238281 9.703125 -6.5625 C 11.078125 -5.882812 12.566406 -5.546875 14.171875 -5.546875 C 15.640625 -5.546875 16.75 -5.8125 17.5 -6.34375 C 18.25 -6.875 18.625 -7.628906 18.625 -8.609375 C 18.625 -9.378906 18.351562 -10.023438 17.8125 -10.546875 C 17.28125 -11.066406 16.410156 -11.472656 15.203125 -11.765625 L 11.21875 -12.71875 C 8.226562 -13.425781 6.039062 -14.515625 4.65625 -15.984375 C 3.28125 -17.453125 2.59375 -19.316406 2.59375 -21.578125 C 2.59375 -23.453125 3.070312 -25.082031 4.03125 -26.46875 C 4.988281 -27.851562 6.335938 -28.910156 8.078125 -29.640625 C 9.816406 -30.367188 11.847656 -30.734375 14.171875 -30.734375 C 16.878906 -30.734375 19.125 -30.34375 20.90625 -29.5625 C 22.695312 -28.78125 24.097656 -27.734375 25.109375 -26.421875 L 21.0625 -22.046875 L 20.515625 -22.046875 C 19.671875 -22.992188 18.722656 -23.6875 17.671875 -24.125 C 16.628906 -24.5625 15.460938 -24.78125 14.171875 -24.78125 C 11.179688 -24.78125 9.6875 -23.847656 9.6875 -21.984375 C 9.6875 -21.203125 9.960938 -20.5625 10.515625 -20.0625 C 11.066406 -19.570312 12.046875 -19.175781 13.453125 -18.875 L 17.171875 -18.046875 C 20.234375 -17.390625 22.46875 -16.335938 23.875 -14.890625 C 25.289062 -13.441406 26 -11.492188 26 -9.046875 C 26 -7.140625 25.523438 -5.457031 24.578125 -4 C 23.628906 -2.539062 22.257812 -1.410156 20.46875 -0.609375 C 18.6875 0.179688 16.566406 0.578125 14.109375 0.578125 Z M 14.109375 0.578125 "/></g></g></g></svg>